<?xml version="1.0" encoding="UTF-8"?>
<svg id="logo" xmlns="http://www.w3.org/2000/svg" viewBox="0 0 841.89 1190.55">
  <defs>
    <style>
      .cls-1 {
        fill: #231f20;
      }
    </style>
  </defs>
  <path class="cls-1" d="M507.67,619.58s.02,0,.02,0c-.2,0-.27,0-.02,0Z"/>
  <path class="cls-1" d="M509.01,619.58s-.47,0-1.26,0c-.02,0-.04,0-.05,0,.52,0,1.95,0,1.31,0Z"/>
  <path class="cls-1" d="M533.26,562.79c-.77-.16-1.46-.21-1.91-.23-.2,0,1.11-.04,1.11-.04-12-.02-26.03-.05-38.1-.07,2.06-4.15-.77-9.3-6.33-8.97-.48,0-1.03,0-1.51,0-2.14,0-5.3,0-7.46,0,0,0,0,0,0,0-24.49.01-49.12.06-73.66.03-.6,0-1.19.06-1.77.15-.59.06-1.17.17-1.74.32-.58.11-1.15.28-1.71.48-.57.17-1.13.4-1.67.65-.56.22-1.08.51-1.6.81h-.02c-.5.27-1.09.67-1.49.95-7.64,6.17-14.92,13.01-22.32,19.34-6.1,4.58-3.97,13.2,3.98,13.31h.04c6.43,0,20.36.03,26.66.04-.86.74-1.65,1.45-2.54,2.1-.25.16-.5.34-.75.49l-.04.02c-.21.11-.45.25-.65.36l-.07.03c-.19.08-.41.19-.61.27-.22.07-.45.16-.68.22-.76.2-1.53.28-2.31.27-1.31-.05-2.52-.08-3.68-.08h0c-2.57.03-6.98-.17-9.24.69-4.58,1.16-10.46,3.64-11.41,8.83-.65.12-1.27.32-1.78.48-2.73.69-5.54,2.44-7.64,4.12-1.89,1.46-2.94,4.07-2.6,6.49.36,3.47,4.23,5.76,7.73,5.57,19.3.05,40.24.05,59.59.08,0,.01-.02.03-.02.04,4.66-.02,9.32.07,13.96,0,.11,0,.23,0,.34-.01,8.16,0,16.31.05,24.42.03,5.19.02,30.56,0,41.99,0,.13,0,.38-.04.7-.08,1.15.11,3.85.02,6.79.05.73.08,1.5.08,2.23,0,.44.01.83-.05,1.23-.21,4.65-1.07,8.13-5.23,8.13-10.2.15-7.84-8.81-13.08-15.55-9.17-2.21-1.93-1.72-4.66-.35-6.13,3.28-3.5,8.03-8.5,12.24-12.95.97-1.03,2-2.3,5.05-2.57,1.98-.17,4.02-1.02,5.98-2.19,6.13-3.25,6.36-11.62-.95-13.32ZM377.44,603.38c1.19-1.95,3.93-3.05,6.06-3.66,1.79-.43,1.87-.67,3.54-.75,2.93-.09,5.89-.09,8.82.01,3.52.15,6.93-1.23,9.6-3.47,3.08-2.49,5.79-5.8,9.86-6.62,2.35-.6,4.75-.33,7.17-.39v-.08c.61.03,1.3.05,2.02.07.33.01.69-.04,1.02.03,5.48.14,10.99.17,16.48.19,2.52.13,5.1-.24,7.52.19,1.39.51,1.42,2.34.39,3.26-1.19,1.23-2.6,2.61-4.11,4.11-2.24,2.1-4.13,4.3-6.48,6.14-4.86,3.52-11.21,2.18-16.84,2.39h0c-13.76-.02-27.53-.04-41.29-.05-1.02-.1-4.54.45-3.77-1.39ZM477.93,607.91c-.75.63-1.43,1.2-2.26,1.86-2.09,2.03-4.67,3.44-7.54,3.92-29.87.55-59.82-.08-89.72.09-3.46,0-6.92-.01-10.38-.02-.87-.02-1.83.05-2.55-.5-.07-.06-.11-.12-.12-.18-.05-.39.15-.99.45-1.23,1.73-1.36,3.63-2.62,5.78-3.17,1.61-.54,3.3-.68,4.99-.72,22.51-.02,64.53.3,87.4.38,2.11-.02,4.2-.45,6.07-1.45.31-.16.45-.49.44-.84-.02-.58-.45-1.22-1.22-1.22-1.02-.01-.51,0-1.4-.01-2.2-.02-4.02-.05-6.85-.09-3.8-.06-7.77-.13-11.29-.17-1.16.02-3.69-.03-3.35-1.57.1-.2.77-.93,1.75-1.97,5.49-5.7,11.61-11.97,17.3-16.79,2.17-1.82,4.14-4,6.79-5.13,3.67-1.75,7.84-1.05,11.77-1.17,7.27.01,14.54.02,21.81.05.87.01,1.91-.19,2.55.53.97,1.18-.26,2.22-1.19,2.95-4.69,4.22-9.38,8.44-14.07,12.66-1.01-.22-1.96-.67-2.76-1.35l-8.67-7.39c-.53-.45-1.19-.68-1.84-.68-2.32-.08-3.75,2.93-2.16,4.67,0,0,7.39,8.67,7.39,8.67.57.67.96,1.42,1.21,2.21-1.54,1.38-3.08,2.77-4.62,4.15-1.11,1.26-2.38,2.36-3.71,3.51ZM501.61,608.03l7.39,8.67-7.31-6.23c-.23-.19-1.11-.95-1.36-1.16-1.71-1.45-3.81-2.18-5.92-2.18-2.14,0-4.27.77-5.92,2.18,0,0-2.88,2.46-2.88,2.46l-5.79,4.93,4.3-5.04,3.1-3.63c2.3-2.69,2.82-6.62,1.31-9.82,0,0,0,0,0,0-.49-1.52-7.64-9.3-8.7-10.7,1.56,1.17,9.13,8.22,10.85,8.76,0,0,0,0,0,0,3.19,1.44,6.96.94,9.67-1.37,1.57-1.34,7.2-6.14,8.67-7.39l-7.39,8.67c-2.91,3.41-2.91,8.43,0,11.84ZM532.71,570.13c-2.7,2.49-6.57,3.45-10.15,3.51-3.42-.01-8.42-.02-12.45-.03-12.54,0-25.29-.08-37.75-.06,0,0,0,0,0,0-2.51.06-4.97.89-7.05,2.29-2.43,1.72-4.5,3.91-6.78,5.82-.48.32-1.17.98-1.62.31h0s0,0,0,0c0,0,0,0,0,0-3.95-9-13.43-12.17-22.08-7.84-2.52,1.38-4.68,3.51-6.1,6.04-.84,1.44-.39,2.33.27,2.4,1.78.31,3.58.5,5.4.71,3.25.37,5.54.52,8.05.85-.46.05-1.02-.01-2.24,0-6.35-.06-25.56-.22-31.96-.22-10.06-.02-20.13-.03-30.19-.05-3.11.24-3.98-1.23-1.28-3.38,6.83-5.98,13.65-11.97,20.49-17.93,1.68-1.46,3.68-2.57,5.85-3.04,1.05-.27,2.13-.34,3.22-.36,4.12.03,8.25.04,12.37.04,4.96,0,9.92,0,14.88,0,15.08,0,30.16-.06,45.24-.05.69.07,1.83-.23,1.88.46-1.33,3.5-7.38,4.89-10.77,4.91-5.06-.03-10.11-.04-15.17-.04-5.51.02-11.03-.07-16.54,0,0,0,0,0,0,0-3.36.09-6.59,1.49-9.08,3.73-3.23,2.88-6.47,5.75-9.67,8.67-.54.52-1.38,1.02-1.44,1.82.03.82,1.04,1.22,1.77,1.24,1.73.23,3.32-1.05,4.39-2.05,1.89-1.61,4.01-3.26,5.84-4.99,2.36-2.3,5.2-4.15,8.51-4.65,3.27-.42,6.6-.12,9.91-.2,7.01.02,14.72.03,22.7.05,15.4.03,30.98.06,46.38.08h0c4.11,0,8.39.02,12.4.02,1.19-.05,4.38.02,2.77,1.92Z"/>
</svg>