<?xml version="1.0" encoding="UTF-8"?>
<svg xmlns="http://www.w3.org/2000/svg" version="1.1" viewBox="0 0 179.1 66.1">
  <defs>
    <style>
      .cls-1 {
        fill: #fff;
      }
    </style>
  </defs>
  <!-- Generator: Adobe Illustrator 28.7.1, SVG Export Plug-In . SVG Version: 1.2.0 Build 142)  -->
  <g>
    <g id="logo">
      <path class="cls-1" d="M178.8,13.7c-.8-2.3-2.7-3.9-5.2-4.5-.8-.2-1.5-.2-1.9-.2-.2,0,1.1,0,1.1,0h-21.1s-3,0-3,0h-14c.7-1.5.9-3.2.3-4.9-.7-2-2.7-4.1-6-4.1h-27.8c-9.1,0-18.2,0-27.2,0h-14.9c-3.7,0-8,0-12.3,0h0c-.3,0-.5,0-.8,0h-.2c-.2,0-.5,0-.7,0-.3,0-.5,0-.8,0h-.1s0,0,0,0c-.2,0-.5,0-.7.1-.3,0-.5.1-.8.2h-.1s0,0,0,0c-.2,0-.5,0-.7.2-.3,0-.5.2-.8.3h-.1s0,0,0,0c-.2,0-.4.1-.6.2-.3.1-.6.2-.8.3h-.1c0,0,0,0,0,0-.2,0-.4.2-.6.3-.3.1-.6.3-.8.5h-.1c0,0,0,0,0,0-.2.1-.3.2-.5.3-.4.2-.7.4-.9.6h0c-.2.1-.3.2-.5.3-.5.3-.9.7-1.3,1.1-5.5,4.8-11.1,9.7-16.6,14.5l-4,3.5c-.5.4-1.2,1.1-1.8,1.9-1.7,2.1-2.2,4.7-1.3,7,.9,2.3,3,3.9,5.6,4.3.5,0,1.1.1,1.5.1h17.4s9.3,0,9.3,0c-.6.6-1.2,1.1-1.8,1.6-.2.2-.5.4-.7.5h0c0,0-.2.1-.2.2h0c-.1.1-.3.2-.4.3h0s-.2.2-.2.2h0c-.1.1-.2.2-.3.2h0s-.2.1-.2.1h0c0,0-.2.1-.3.2h-.1s-.2.1-.2.1h0c-.1,0-.2,0-.3.1h-.2s-.2,0-.2,0c-.1,0-.2,0-.4,0,0,0-.2,0-.2,0h0c-.1,0-.3,0-.4,0,0,0-.2,0-.3,0h-.1c-.1,0-.3,0-.4,0h0c-1.3,0-2.5,0-3.7,0h-.5c-1.1,0-3.9,0-5.2,0-1.7,0-2.6.3-3.6.6-.3,0-.5.2-1,.3-1.2.3-2.4.7-3.6,1.3-1.7.8-3.3,1.9-4.6,3.1-1.2,1.1-2,2.6-2.2,4.2,0,0-.2,0-.3,0-.5.1-1,.2-1.3.4h-.2c0,0-.1,0-.1,0-.2,0-.5.1-.9.3-.8.3-1.7.7-2.5,1.1-1.6.8-2.9,1.8-4.2,2.8-1.9,1.5-2.9,4.1-2.6,6.5.4,2.7,2.5,4.8,5.5,5.4.7.1,1.3.2,1.7.2.2,0,.3,0,.5,0h10.9s18.8,0,18.8,0c9.8,0,19.8,0,29.8,0,0,0,0,0,0,0,4.3,0,8.7,0,13,0,.3,0,.5,0,.8,0h.3c0,0,.1,0,.2,0,8,0,16.1,0,24.1,0,.1,0,.2,0,.4,0,1.8,0,3.6,0,5.5,0h36.5c.1,0,.4,0,.7,0,.2,0,.3,0,.5,0h6.3c.4,0,.7,0,1.1,0s.8,0,1.1,0h.2c.4,0,.7,0,1.1-.2,4.7-1.1,8.1-5.2,8.1-10.2s-4.7-10.5-10.5-10.5-3.6.5-5.1,1.3c-2.2-1.9-1.7-4.7-.3-6.1,3.3-3.5,8-8.5,12.2-12.9,1-1,2-2.3,5.1-2.6,2-.2,4-1,6-2.2,1-.6,1.9-1.4,2.7-2.2,1.7-1.9,2.3-4.4,1.6-6.7h0ZM128.8,55.8l-2.9,2.5-5.8,4.9,4.3-5,3.1-3.6c.6-.7,1.1-1.5,1.4-2.3.4-1,.7-2.1.7-3.2,0-.1,0-.2,0-.4,0-1.3-.3-2.7-.9-3.9h0c-.3-.7-.8-1.4-1.3-2l-7.4-8.7,8.7,7.4c.7.6,1.4,1,2.2,1.4h0c1.2.5,2.5.8,3.8.8s.5,0,.7,0c1.8-.1,3.7-.9,5.2-2.1l6.5-5.5,2.2-1.9-7.4,8.7c-2.9,3.4-2.9,8.4,0,11.8l7.4,8.7-7.3-6.2-.4-.3-1-.9c-1.7-1.4-3.8-2.2-5.9-2.2s-2.6.3-3.8.8c-.8.3-1.5.8-2.1,1.4h0ZM18.4,30.3h-.7c-.3,0-.6,0-.9,0-1.3-.2-1.7-1.1-.8-2.2.3-.4.8-.8,1.2-1.1,6.8-6,13.7-12,20.5-17.9.3-.3.7-.5,1-.8,0,0,.2-.1.3-.2.2-.2.5-.3.7-.5.1,0,.3-.1.4-.2.2-.1.5-.3.7-.4.1,0,.3-.1.4-.2.2,0,.4-.2.7-.3.2,0,.3-.1.5-.2.2,0,.4-.2.7-.2.2,0,.3,0,.5-.1.2,0,.4-.1.7-.2.2,0,.4,0,.6,0,.2,0,.5,0,.7,0,.2,0,.4,0,.6,0s.4,0,.7,0h0c4.1,0,8.2,0,12.4,0h14.9c14.4,0,28.9,0,43.3,0h3.1c.5,0,.7.2.7.5,0,0,0,.1,0,.2,0,.2-.2.4-.3.6,0,.1-.2.3-.3.4,0,.1-.2.2-.3.3-.2.2-.3.3-.3.3-.7.6-1.6,1.1-2.4,1.6-.6.3-1.1.5-1.7.7-.2,0-.4.1-.6.2-.4.1-.8.2-1.2.3-.2,0-.5,0-.7.1-.4,0-.7.1-1.1.2-.3,0-.5,0-.8,0-.3,0-.7,0-1,0h-.1c-5,0-10,0-15.1,0s-6.4,0-9.6,0h0c-2.1,0-4.1,0-6.2,0h0c-.3,0-.5,0-.8,0h0c-.2,0-.4,0-.6,0-.2,0-.5,0-.7.1-.2,0-.4,0-.6,0-.2,0-.5.1-.7.2-.2,0-.4,0-.6.1-.2,0-.5.1-.7.2-.2,0-.4.1-.6.2-.2,0-.5.2-.7.3-.2,0-.4.1-.5.2-.2.1-.4.2-.7.4-.2,0-.3.2-.5.3-.2.1-.5.3-.7.5-.1.1-.3.2-.4.3-.4.3-.7.6-1.1.9-3.2,2.9-6.5,5.8-9.7,8.7,0,0-.2.2-.3.2-.3.3-.6.5-.8.8-.2.2-.3.5-.3.7s0,.2,0,.3c0,.2.3.5.5.6.2.1.4.2.6.2s.4,0,.6,0h.5c0,0,.2,0,.3,0,0,0,.2,0,.2,0,.1,0,.2,0,.3,0,0,0,.1,0,.2,0,.2,0,.3,0,.4-.2,1-.6,1.7-1.1,2.4-1.8.4-.4.9-.8,1.4-1.2.8-.6,1.5-1.2,2.2-1.9s1.5-1.3,2.2-1.9c.5-.4,1-.9,1.5-1.3.3-.3.7-.6,1.1-.9,0,0,.2-.1.3-.2.3-.2.6-.4.8-.6,0,0,.2,0,.2-.1.3-.2.6-.4.9-.5,0,0,.2,0,.3-.1.3-.1.6-.3.9-.4,0,0,.2,0,.3,0,.3-.1.6-.2,1-.3.2,0,.3,0,.5-.1.3,0,.5-.1.8-.2.2,0,.3,0,.5,0,.3,0,.6,0,.8-.1.2,0,.4,0,.5,0h.1c.2,0,.5,0,.7,0h7.2c7,0,14.7,0,22.7,0,4.1,0,8.3,0,12.5,0h6.2c2.9,0,5.7,0,8.6,0h25.3c2.1,0,4.2,0,6.2,0h.7c.1,0,.3,0,.4,0,.3,0,.6,0,.9.1,0,0,0,0,0,0,.1,0,.3,0,.4.1s.2,0,.3.1c.1,0,.2.2.3.3s0,.2,0,.4c0,.3-.2.6-.4.9-.2.2-.4.4-.7.6s-.5.4-.7.5c-.4.2-.8.4-1.1.6-1.2.6-2.3,1-3.6,1.3-.3,0-.7.1-1,.2-.1,0-.2,0-.3,0-.2,0-.4,0-.7.1-.1,0-.3,0-.4,0-.2,0-.4,0-.6,0-.2,0-.3,0-.4,0-.2,0-.4,0-.6,0-2.4,0-5.4,0-8.7,0h-17.1c-3.4,0-6.7,0-9.9,0h-8.1c-1.6,0-3.1,0-4.4,0h-1.3c-.2,0-.4,0-.6,0h0c-.2,0-.4,0-.6,0-.2,0-.4,0-.6,0-.2,0-.4,0-.5,0-.2,0-.4,0-.6.1-.2,0-.3,0-.5.1-.2,0-.4.1-.6.2-.2,0-.3,0-.5.1-.2,0-.4.2-.6.2-.2,0-.3.1-.5.2-.2.1-.4.2-.7.3-.1,0-.2.1-.4.2-.2.1-.5.3-.7.4,0,0-.2.1-.3.2-.3.2-.6.5-1,.7-1.6,1.3-3.2,2.8-4.7,4.2-.2.2-.3.3-.5.5-.2.2-.4.3-.5.5-.2.1-.3.2-.4.3,0,0,0,0,0,0,0,0-.2.1-.2.1,0,0,0,0-.1,0,0,0-.1,0-.2,0,0,0,0,0,0,0h-.1s0,0-.1,0c0,0,0,0,0,0,0,0,0,0-.1-.1,0,0,0,0,0,0h0c0,0,0-.1-.2-.2,0,0,0,0,0-.1,0-.1-.2-.3-.2-.5-1.5-3-3.5-5.4-6.3-7-.5-.3-.9-.5-1.4-.7s-1-.4-1.5-.6c-.3-.1-.7-.2-1-.3-.1,0-.2,0-.3,0-.2,0-.5,0-.7-.1-.1,0-.3,0-.4,0-.2,0-.4,0-.6,0-.2,0-.3,0-.4,0-.2,0-.4,0-.6,0h-.3c-.6,0-1.2,0-1.7,0,0,0,0,0-.1,0-.6,0-1.2.2-1.8.3-.8.1-1.5.4-2.2.6-.7.2-1.4.6-2,.9-1.3.7-2.6,1.7-3.6,2.8-.7.7-1.3,1.4-1.8,2.2-.2.3-.4.7-.6,1-.8,1.4-.4,2.3.3,2.4,0,0,.1,0,.2,0,0,0,.2,0,.2,0s.2,0,.2,0h0c.2,0,.3,0,.5,0,.1,0,.3,0,.4,0,0,0,.1,0,.2,0s.2,0,.2,0c.5,0,1.1.1,1.8.2,0,0,.2,0,.3,0,.4,0,.8,0,1.1.1,0,0,.1,0,.2,0,2.4.3,5,.5,6.5.7.2,0,.4,0,.6,0,0,0,0,0,.1,0,.2,0,.4,0,.5,0h0s0,0,0,0c0,0,0,0,0,0h0-.2c-.3,0-1,0-2.1,0h-.5c-.4,0-.9,0-1.4,0-.5,0-1.1,0-1.7,0s-22.9-.2-23.6-.2h-4.8c-10.1,0-20.1,0-30.2,0h0ZM17.7,49.8c0-.2.2-.5.4-.6.5-.4,1-.8,1.5-1.2.5-.4,1.1-.7,1.7-.9.8-.4,1.6-.7,2.5-.9,1.1-.2,1.5-.4,2.1-.6.4,0,.8-.1,1.5-.2h0c.1,0,.3,0,.4,0h4.9c1.2,0,2.3,0,3.4,0h.3c.2,0,.5,0,.7,0,.2,0,.4,0,.6,0,.2,0,.5,0,.7,0,.2,0,.4,0,.6,0,.2,0,.5,0,.7-.1.2,0,.4,0,.5-.1.2,0,.4-.1.7-.2.2,0,.3-.1.5-.2.2,0,.4-.2.7-.3.2,0,.3-.1.5-.2.2-.1.5-.2.7-.4.1,0,.3-.2.4-.2.2-.1.5-.3.7-.5s.2-.1.3-.2c.3-.2.7-.5,1-.8.6-.5,1.2-1,1.9-1.6.6-.5,1.2-1.1,1.8-1.6.3-.3.7-.6,1-.9,0,0,.2-.1.2-.2,0,0,0,0,0,0,.2-.2.5-.4.7-.5.1,0,.3-.2.4-.2.2-.1.5-.3.7-.4.2,0,.3-.1.5-.2.2-.1.5-.2.7-.3.2,0,.3-.1.5-.2.2,0,.5-.2.7-.2.2,0,.4,0,.6-.1.2,0,.5-.1.7-.2.2,0,.4,0,.6,0,.2,0,.5,0,.7,0,.2,0,.4,0,.6,0,.3,0,.5,0,.8,0h3.7c.6,0,1.3,0,2,0h.8c0,0,.1,0,.2,0,.4,0,.8,0,1.3,0h2c.3,0,.6,0,.9,0h2.2c.3,0,.7,0,1,0h.3c.5,0,1,0,1.5,0h.2c.4,0,.8,0,1.3,0h12.3c.4,0,.7,0,1,.2.1,0,.3.1.4.2.1,0,.2.2.3.3,0,0,0,0,0,.1,0,.1.2.3.2.4,0,0,0,0,0,.1,0,.2,0,.3,0,.5s0,.4,0,.5-.1.4-.2.5-.2.4-.4.5c0,0-.1.1-.2.2-1.1,1.1-2.5,2.5-4,3.9-1.1,1.1-2.2,2.1-3.1,3.1-.5.5-1,1-1.5,1.5-.3.3-.5.5-.8.8,0,0-.2.1-.2.2-.2.2-.4.3-.6.5,0,0-.2.1-.2.2-.2.2-.5.3-.7.5,0,0,0,0-.1,0-.3.2-.5.3-.8.4,0,0-.2,0-.2.1-.2.1-.4.2-.6.3,0,0-.2,0-.3.1-.2,0-.5.2-.7.2,0,0-.1,0-.2,0-.3,0-.6.2-.9.2,0,0-.2,0-.2,0-.2,0-.5,0-.7.1,0,0-.2,0-.3,0-.2,0-.5,0-.7,0,0,0-.2,0-.3,0-.3,0-.7,0-1,0h-.2c-.3,0-.6,0-.9,0h-3.1c-.3,0-.6,0-.9,0-.5,0-1,0-1.6,0h-.6c-.6,0-1.2,0-1.8,0h0c-5.9,0-11.8,0-17.6,0s-15.8,0-23.7,0h-1.2c-.5,0-1,0-1.5,0,0,0-.1,0-.2,0-.1,0-.2,0-.4-.1-.3-.1-.6-.3-.6-.4,0-.2,0-.5,0-.7h0ZM18.7,60.2c-3.4,0-6.8,0-10.2,0h-1c-.3,0-.6,0-.8,0,0,0-.2,0-.3,0-.2,0-.3-.1-.5-.2,0,0,0,0,0,0,0,0-.1-.1-.1-.2,0-.4.2-1,.5-1.2.5-.4,1-.8,1.6-1.2.3-.2.5-.4.8-.5s.6-.3.9-.5.6-.3.9-.4c.3-.1.6-.2.9-.4.2,0,.5-.1.7-.2h0c.4-.1.7-.2,1.1-.3.3,0,.6,0,.8-.1.3,0,.7-.1,1.1-.2.3,0,.6,0,.9,0h0c.4,0,.7,0,1.1,0,6.3,0,12.6,0,18.9,0,12.7,0,55.8.3,68.5.4h0c.3,0,.6,0,.9,0,.2,0,.5,0,.7,0,.3,0,.6-.1.9-.2.2,0,.4,0,.6-.1.4,0,.7-.2,1.1-.3.1,0,.3,0,.4-.1.5-.2,1-.4,1.5-.7.3-.2.5-.5.4-.8,0-.6-.5-1.2-1.2-1.2-1,0-.5,0-1.4,0h-1.5c-1.4,0-3.3,0-5.4,0-.7,0-1.4,0-2.2,0-2.5,0-5.1,0-7.2-.1-.7,0-1.3,0-1.9,0h-.8c-.6,0-1.1,0-1.4-.2-.3,0-.5-.2-.7-.3-.4-.3-.5-.6-.5-.8,0,0,0-.1,0-.2,0-.2.8-.9,1.8-2,.3-.3.6-.6.9-1,1.2-1.2,2.5-2.6,3.9-4,.4-.4.8-.8,1.2-1.2.7-.7,1.4-1.4,2-2,1.9-1.9,3.4-3.4,3.6-3.6.2-.2.4-.4.6-.6,1.7-1.5,3.4-3,5.1-4.5,1-.9,2-1.7,2.9-2.6.3-.2.5-.5.8-.7.3-.2.6-.4.8-.6.1-.1.3-.2.4-.3.2-.1.4-.2.6-.3.2-.1.3-.2.5-.3.2-.1.4-.2.7-.3.2,0,.3-.2.5-.2.2,0,.4-.1.7-.2.2,0,.4-.1.6-.2.2,0,.4-.1.6-.1.2,0,.4-.1.6-.1.2,0,.4,0,.7,0,.2,0,.4,0,.6,0,.2,0,.5,0,.7,0,.2,0,.4,0,.6,0h0c2.1,0,4.1,0,6.2,0,7.3,0,14.5,0,21.8,0h1c.1,0,.3,0,.4,0,0,0,0,0,.1,0,.2,0,.3,0,.5.1,0,0,0,0,0,0,.1,0,.2.1.3.2,0,0,0,0,0,.1,0,0,.1.1.2.2s0,.2.1.3c0,.1,0,.2,0,.3s0,.2,0,.3c0,.6-.5,1-1,1.4-.2.2-.4.3-.6.5-4.7,4.2-9.4,8.4-14.1,12.6-1-.2-2-.7-2.8-1.4l-8.7-7.4c-.5-.4-1.2-.7-1.8-.7s-1.4.3-2,.8c-1.1,1.1-1.1,2.7-.2,3.8l7.4,8.7c.6.7,1,1.4,1.2,2.2-1.5,1.4-3.1,2.8-4.6,4.1,0,0,0,0,0,0s-.1.1-.2.2c0,0-.1.1-.2.2-.1.1-.3.3-.5.5,0,.1-.2.2-.3.3-.1.1-.3.3-.5.4-.3.3-.8.7-1.2,1.1-.2.2-.5.4-.8.7-.2.2-.4.4-.7.6-.5.4-1,.8-1.6,1.3-.2.2-.4.3-.6.5-.7.6-1.4,1.2-2.2,1.6-.2.1-.4.2-.6.3-.2.1-.4.2-.5.3-.2,0-.3.1-.5.2-.2.1-.5.2-.7.3-.1,0-.3,0-.4.1-.3,0-.5.2-.8.3-.2,0-.4,0-.6.1-.2,0-.4.1-.7.1-.2,0-.4,0-.7,0-.2,0-.5,0-.7,0-.2,0-.4,0-.7,0s-.5,0-.7,0c-29,0-58,0-87-.1h0Z"/>
    </g>
  </g>
</svg>